<svg aria-hidden="true" style="position: absolute; width: 0; height: 0; overflow: hidden;" version="1.1" xmlns="http://www.w3.org/2000/svg" xmlns:xlink="http://www.w3.org/1999/xlink">
<defs>
<symbol id="icon-up-left" viewBox="0 0 32 32">
<path fill="#fff" style="fill: var(--color1, #fff)" d="M8.552 6h17.333v17.333h-5.333v-8.229l-10.667 10.667-3.771-3.771 10.667-10.667h-8.229v-5.333z"></path>
</symbol>
<symbol id="icon-twitter" viewBox="0 0 32 32">
<path d="M19.044 13.543l11.913-13.543h-2.823l-10.344 11.759-8.262-11.759h-9.529l12.493 17.782-12.493 14.202h2.823l10.923-12.418 8.725 12.418h9.529l-12.956-18.441zM15.178 17.938l-11.337-15.86h4.336l19.959 27.921h-4.336l-8.622-12.061z"></path>
</symbol>
<symbol id="icon-discord" viewBox="0 0 32 32">
<path d="M25.256 7.848c-1.726-0.759-3.572-1.31-5.501-1.624-0.237 0.403-0.514 0.944-0.705 1.375-2.051-0.29-4.084-0.29-6.097 0-0.191-0.431-0.474-0.972-0.713-1.375-1.932 0.314-3.78 0.867-5.506 1.628-3.482 4.943-4.426 9.763-3.954 14.515 2.309 1.62 4.547 2.604 6.747 3.248 0.543-0.702 1.028-1.449 1.445-2.236-0.795-0.284-1.556-0.634-2.276-1.041 0.191-0.133 0.378-0.272 0.558-0.415 4.388 1.928 9.155 1.928 13.491 0 0.182 0.143 0.369 0.282 0.558 0.415-0.722 0.409-1.485 0.759-2.28 1.043 0.417 0.785 0.9 1.534 1.445 2.236 2.202-0.644 4.442-1.628 6.752-3.25 0.554-5.509-0.946-10.285-3.964-14.519zM11.57 19.445c-1.317 0-2.397-1.155-2.397-2.562s1.057-2.564 2.397-2.564 2.42 1.155 2.397 2.564c0.002 1.407-1.057 2.562-2.397 2.562zM20.43 19.445c-1.317 0-2.397-1.155-2.397-2.562s1.057-2.564 2.397-2.564c1.34 0 2.42 1.155 2.397 2.564 0 1.407-1.057 2.562-2.397 2.562z"></path>
</symbol>
<symbol id="icon-Logomark" viewBox="0 0 32 32">
<path d="M16.14 0.001c-8.947-0.074-16.213 7.192-16.139 16.139 0.075 8.688 7.173 15.787 15.859 15.859 8.947 0.077 16.216-7.192 16.139-16.139-0.072-8.685-7.171-15.784-15.859-15.859zM11.356 7.964c1.024 1.301 1.637 2.947 1.637 4.733 0 1.547-0.459 2.987-1.248 4.189h-5.547l5.158-8.922zM28.268 17.711v1.152c0 0.075-0.040 0.139-0.109 0.168-0.376 0.16-1.616 0.736-2.133 1.453-1.331 1.853-2.347 4.765-4.619 4.765h-9.48c-3.357 0-6.165-2.664-6.163-6.213 0-0.088 0.075-0.16 0.163-0.16h4.493c0.155 0 0.277 0.125 0.277 0.277v0.867c0 0.461 0.373 0.835 0.835 0.835h3.408v-1.984h-2.328c1.339-1.696 2.136-3.837 2.136-6.168 0-2.6-0.997-4.971-2.629-6.744 0.987 0.115 1.931 0.312 2.821 0.573v-0.552c0-0.573 0.464-1.037 1.037-1.037s1.037 0.464 1.037 1.037v1.331c3.181 1.485 5.264 3.949 5.264 6.736 0 1.635-0.715 3.157-1.949 4.437-0.237 0.245-0.565 0.384-0.909 0.384h-2.405v1.981h3.019c0.651 0 1.819-1.235 2.373-1.979 0 0 0.024-0.037 0.088-0.056s5.544-1.277 5.544-1.277c0.115-0.032 0.229 0.056 0.229 0.173v0.002z"></path>
</symbol>
<symbol id="icon-logo" viewBox="0 0 46 32">
<path d="M0.336 23.381h3.022c1.787 0 2.903 0.828 2.892 2.096-0.005 0.546 0 1.227-0.678 1.85 0.469 0 1.008 0.664 1.008 1.98 0 1.674-0.939 2.57-2.414 2.57h-3.83v-8.497zM2.19 25.202v1.543h1.463c0.541 0 0.671-0.476 0.671-0.724v-0.059c0-0.484-0.182-0.736-0.671-0.736l-1.463-0.023zM2.19 28.35v1.825h1.716c0.41 0 0.565-0.437 0.565-0.823v-0.127c0-0.583-0.266-0.864-0.756-0.864l-1.525-0.011z"></path>
<path d="M8.713 28.101l-2.805-4.72h2.439l1.354 2.769 1.488-2.769h2.22l-2.72 4.72v3.776h-1.976v-3.776z"></path>
<path d="M27.809 26.127c0 1.716-1.313 3.096-4.176 3.096v2.652h-2.001v-8.481h3.039c2.348 0 3.138 1.018 3.138 2.733zM23.633 27.639h0.698c0.901 0 1.607-0.524 1.607-1.512s-0.574-1.257-1.607-1.257h-0.698v2.768z"></path>
<path d="M0.336 22.237v-11.12h2.83l3.244 5.949 3.421-5.949h2.83v11.12h-2.83v-5.080l-3.421 5.080-3.244-5.080v5.080h-2.83z"></path>
<path d="M16.144 11.117h3.852l2.81 11.12h-2.501l-0.658-2.068h-3.243l-0.609 2.068h-2.55l2.899-11.12zM18.070 14.052l-1.274 4.072h2.455l-1.18-4.072z"></path>
<path d="M32.718 11.118h7.935v2.513h-5.408v1.75h5.408v2.45h-5.408v2.084h5.408v2.322h-7.935v-11.119z"></path>
<path d="M28.25 23.394h6.052v1.917h-4.125v1.335h4.125v1.869h-4.125v1.59h4.125v1.771h-6.052v-8.481z"></path>
<path d="M16.107 23.394h2.938l2.144 8.481h-1.907l-0.502-1.577h-2.474l-0.464 1.577h-1.946l2.212-8.481zM17.576 25.632l-0.972 3.105h1.873l-0.901-3.105z"></path>
<path d="M26.957 22.253l-3.602-0.010v-11.12l3.602-0.035c3.375 0 5.177 1.633 5.177 5.666 0 3.094-1.73 5.498-5.177 5.498zM25.835 19.849h1.122c1.575 0 2.536-1.002 2.536-3.094s-0.75-3.067-2.536-3.067h-1.122v6.161z"></path>
<path d="M35.023 25.752c0-1.323 0.948-2.284 2.483-2.415 1.28-0.11 2.447 0.354 3.332 0.941l-0.809 1.797c0 0-0.905-0.524-1.437-0.692-0.417-0.132-0.972-0.008-1.086 0.275s-0.093 0.572 0.276 0.757c0.029 0.015 0.062 0.031 0.098 0.049 0.204 0.1 0.511 0.253 0.859 0.464h0.006c0 0 0.748 0.402 1.333 1.049 0.047 0.049 0.095 0.1 0.14 0.151h-0.010c0.313 0.386 0.552 0.846 0.552 1.351 0 1.322-1.093 2.375-2.627 2.506-1.28 0.11-2.451-0.474-3.336-1.061l0.625-1.8c0 0 1.237 0.555 1.769 0.724 0.417 0.132 0.972 0.008 1.086-0.275s0.128-0.484-0.276-0.757c-0.126-0.085-0.277-0.173-0.448-0.273-0.128-0.074-0.266-0.155-0.413-0.246-0.16-0.084-2.118-1.139-2.118-2.547h0.002z"></path>
<path d="M44.023 12.943v-1.854h0.445l0.555 0.992 0.53-0.992h0.527v1.854h-0.445v-0.915l-0.612 0.915-0.527-0.915v0.915h-0.472z"></path>
<path d="M42.17 11.479v-0.39h1.685v0.39h-0.614v1.464h-0.451v-1.464h-0.62z"></path>
<path d="M9.571 0.854l-0.956-0.158c-0.056-0.009-0.065-0.081-0.014-0.103 2.221-0.944 4.564-0.557 6.271 0.925 0.061 0.053 0.045 0.149-0.028 0.185-0.307 0.157-0.649 0.384-0.802 0.49-0.047 0.033-0.112 0.027-0.153-0.012-1.094-1.013-3.118-1.151-4.319-1.328v0.001z"></path>
<path d="M31.419 0.854l0.956-0.158c0.056-0.009 0.065-0.081 0.014-0.103-2.222-0.944-4.565-0.557-6.272 0.925-0.061 0.053-0.045 0.149 0.028 0.185 0.307 0.157 0.649 0.384 0.802 0.49 0.047 0.033 0.112 0.027 0.153-0.012 1.094-1.013 3.118-1.151 4.319-1.328v0.001z"></path>
<path d="M20.552 1.668c-1.536 0-2.395-0.377-3.907-0.399-0.051-0.001-0.076-0.060-0.039-0.093 1.078-0.954 3.156-1.176 3.878-1.176 0.607 0 2.618 0.176 3.789 1.169 0.040 0.034 0.013 0.095-0.040 0.094-1.515-0.024-1.526 0.404-3.683 0.404l0.001 0.001z"></path>
<path d="M1.506 9.458h-0.935c-0.164 0-0.276-0.16-0.221-0.309 0.103-0.275 0.237-0.667 0.254-0.894 0.017-0.216 0.009-0.396 0.002-0.558-0.014-0.328-0.025-0.588 0.173-0.951 0.163-0.298 0.342-0.537 0.525-0.78 0.229-0.305 0.464-0.617 0.677-1.063 0.162-0.34 0.267-0.824 0.379-1.342 0.103-0.477 0.213-0.983 0.379-1.432 0.347-0.934 0.47-1.267 1.319-1.406 0.829-0.136 1.777 0.126 2.738 0.393 0.551 0.153 1.107 0.307 1.649 0.387 0.341 0.051 0.687 0.095 1.031 0.139 1.441 0.184 2.847 0.364 3.729 1.021 0.104 0.078 0.104 0.226 0.025 0.329-0.33 0.429-0.605 1.193-0.658 2.112-0.038 0.66 0.123 1.482 0.42 2.498 0.171 0.586-0.133 1.22-0.334 1.641-0.013 0.027-0.025 0.053-0.038 0.079-0.039 0.082-0.123 0.136-0.216 0.136h-7.194c-0.127 0-0.23-0.1-0.236-0.223-0.051-1.052-0.468-2.15-1.544-2.15s-1.558 1.31-1.689 2.171c-0.017 0.114-0.116 0.202-0.236 0.202v-0.001zM3.325 5.796v-0.001c0.395 0.412 1.84 0.6 2.625-0.203 0.917-0.938 0.978-2.912 0.058-3.442-0.365-0.21-0.998-0.263-0.998-0.263-0.919 0-1.108 0.726-1.308 1.494-0.051 0.195-0.102 0.393-0.166 0.583-0.059 0.174-0.139 0.338-0.217 0.496-0.228 0.466-0.431 0.881 0.007 1.336zM7.956 6.865c0.881 0.622 2.297 0.458 2.915-0.023 0.812-0.633 0.993-2.752 0.304-3.37-0.743-0.667-1.551-0.74-2.423-0.336-0.986 0.457-1.41 3.297-0.796 3.73h0z"></path>
<path d="M39.483 9.458h0.934c0.164 0 0.276-0.16 0.221-0.309-0.103-0.275-0.237-0.667-0.254-0.894-0.017-0.216-0.010-0.396-0.002-0.558 0.014-0.328 0.025-0.588-0.173-0.951-0.163-0.298-0.342-0.537-0.525-0.78-0.229-0.305-0.464-0.617-0.677-1.063-0.162-0.34-0.267-0.824-0.379-1.342-0.103-0.477-0.213-0.983-0.379-1.432-0.347-0.934-0.47-1.267-1.319-1.406-0.829-0.136-1.777 0.126-2.738 0.393-0.551 0.153-1.108 0.307-1.649 0.387-0.341 0.051-0.687 0.095-1.031 0.139-1.441 0.184-2.847 0.364-3.729 1.021-0.104 0.078-0.104 0.226-0.025 0.329 0.33 0.429 0.605 1.193 0.658 2.112 0.038 0.66-0.123 1.482-0.42 2.498-0.155 0.532 0.080 1.102 0.276 1.517 0.097 0.205 0.311 0.338 0.544 0.338h6.963c0.128 0 0.23-0.1 0.236-0.223 0.051-1.052 0.468-2.15 1.544-2.15s1.559 1.31 1.689 2.171c0.017 0.114 0.116 0.202 0.236 0.202v-0.001zM37.665 5.796v-0.001c-0.395 0.412-1.84 0.6-2.625-0.203-0.916-0.938-0.978-2.912-0.057-3.442 0.365-0.21 0.998-0.263 0.998-0.263 0.919 0 1.108 0.726 1.308 1.494 0.051 0.195 0.102 0.393 0.166 0.583 0.059 0.174 0.139 0.338 0.217 0.496 0.228 0.466 0.431 0.881-0.007 1.336zM33.034 6.865c-0.881 0.622-2.297 0.458-2.915-0.023-0.812-0.633-0.993-2.752-0.304-3.37 0.743-0.667 1.551-0.74 2.423-0.336 0.986 0.457 1.41 3.297 0.796 3.73h-0.001z"></path>
<path d="M18.18 9.457v0.001c0.104 0 0.197-0.068 0.231-0.164 0.169-0.469 0.758-1.786 2.064-1.786s1.895 1.317 2.063 1.786c0.034 0.096 0.126 0.164 0.231 0.164h4.698c0.093 0 0.148-0.103 0.098-0.179-0.598-0.919-0.452-1.524-0.258-2.329 0.136-0.564 0.295-1.226 0.239-2.162-0.085-1.406-0.912-2.291-2.458-2.616-0.803-0.168-1.841-0.010-2.815 0.139-0.619 0.095-1.212 0.185-1.703 0.185-0.659 0-1.338-0.109-2.002-0.215-0.959-0.154-1.884-0.303-2.661-0.109-1.498 0.373-2.241 1.149-2.516 2.698-0.103 0.804 0.068 1.416 0.226 1.985 0.214 0.768 0.405 1.456-0.127 2.432-0.041 0.076 0.014 0.171 0.103 0.171h4.586zM17.509 7.262c-0.918 0.522-2.113 0.514-2.576-0.517-0.526-1.172-0.015-2.829 1.466-3.239 1.551-0.429 3.051-0.22 2.995 0.911-0.042 0.84-0.811 2.235-1.885 2.845v0zM26.089 6.745c-0.463 1.032-1.658 1.039-2.576 0.517-1.074-0.61-1.843-2.005-1.885-2.845-0.056-1.13 1.444-1.34 2.995-0.911 1.48 0.41 1.991 2.067 1.466 3.239v-0z"></path>
</symbol>
<symbol id="icon-layer" viewBox="0 0 24 32">
<path fill="#c9334f" style="fill: var(--color2, #c9334f)" d="M9.508 28.291c-0.661 0.27-2.253 0.779-2.253 0.779l-0.060 0.39-1.262 0.48c2.223-0.54 5.046-1.679 5.046-1.679l-0.33-0.36c-0.389 0.105-0.77 0.235-1.141 0.39z"></path>
<path fill="#c9334f" style="fill: var(--color2, #c9334f)" d="M15.696 12.522l4.836 5.036 1.922 0.060c0 0-0.901-0.3-2.403-1.739s-2.373-4.137-2.373-4.137l-1.983 0.779z"></path>
<path fill="#c9334f" style="fill: var(--color2, #c9334f)" d="M15.58 12.438l2.248-1.115-2.378 0.804 0.13 0.311z"></path>
<path fill="#c9334f" style="fill: var(--color2, #c9334f)" d="M13.87 7.116l-2.575 0.056c0 0 2.631 3.324 2.631 3.408s0.196 0.028 0.504 0.168c0.29 0.132 0.904 0.71 0.973 0.776l-0.413 0.062 0.112 0.14c0 0 1.315-0.168 1.595-0.223s0.14-0.195 0.14-0.195l-1.432 0.217c-0.397-0.623-0.706-1.297-0.919-2.004-0.308-1.089-0.616-2.402-0.616-2.402z"></path>
<path fill="#c9334f" style="fill: var(--color2, #c9334f)" d="M1.853 5.979l5.721-0.916-5.757 0.695c-0.029 0.005-0.056 0.021-0.073 0.045s-0.025 0.054-0.020 0.084c0.005 0.029 0.021 0.056 0.045 0.073s0.054 0.025 0.084 0.020z"></path>
<path fill="#c9334f" style="fill: var(--color2, #c9334f)" d="M11.463 4.769c-0.7 0.112-1.036 0.251-1.287 0.587 0 0-1.063-0.419-1.539-0.447s-0.952 0.168-1.008 0.419c-0.071 0.283-0.031 0.583 0.112 0.838 0.042 0.086 0.101 0.162 0.173 0.224s0.156 0.11 0.247 0.139l5.513-1.089-0.98-0.056c0 0-0.532-0.726-1.231-0.614z"></path>
<path fill="#c9334f" style="fill: var(--color2, #c9334f)" d="M10.316 4.965c0.168-0.251 1.231-0.363 1.231-0.363-0.351-0.061-0.707-0.089-1.063-0.084-0.362 0.047-0.719 0.131-1.063 0.251 0.532 0.196 0.728 0.447 0.728 0.447l0.168-0.251z"></path>
<path fill="#c9334f" style="fill: var(--color2, #c9334f)" d="M1.927 15.619l-1.076 0.224v1.923c0 0 0.314-0.268 0.493-0.447 0.209-0.171 0.434-0.32 0.672-0.447l-0.090-1.252z"></path>
<path fill="#c9334f" style="fill: var(--color2, #c9334f)" d="M0.941 13.561v1.476l0.941-0.179 0.134-1.521-1.076 0.224z"></path>
<path fill="#c9334f" style="fill: var(--color2, #c9334f)" d="M8.001 3.274c0.222-0.004 0.48-0.015 0.757-0.030 0.138-0.009 0.281-0.015 0.426-0.027 0.095-0.007 0.193-0.015 0.289-0.022l0.059 1.267 0.476-0.168-0.141-1.134c0.065-0.006 0.13-0.012 0.194-0.018 0.145-0.012 0.287-0.031 0.424-0.046 0.275-0.031 0.531-0.065 0.751-0.099 0.439-0.064 0.73-0.127 0.73-0.127s-0.13-0.005-0.346-0.006c0.001-0.001 0.002-0.002 0.002-0.003 0.005-0.014 0.004-0.029-0.002-0.043s-0.018-0.024-0.032-0.029c-0.512-0.206-0.955-0.554-1.273-1.004-0.305-0.429-0.562-0.89-0.767-1.374-0.013-0.164-0.041-0.346-0.1-0.39-0.112-0.084-0.14 0.112-0.14 0.112l0.056 0.726 0.099 2.114c-0.1 0.009-0.199 0.019-0.298 0.028-0.145 0.013-0.287 0.031-0.424 0.046-0.275 0.032-0.531 0.066-0.751 0.099-0.439 0.064-0.73 0.127-0.73 0.127s0.297 0.012 0.741 0.001zM10.225 1.853c0.318 0.444 0.75 0.794 1.252 1.012-0.077 0.001-0.161 0.002-0.251 0.004-0.222 0.004-0.48 0.014-0.757 0.030-0.138 0.009-0.281 0.014-0.426 0.027-0.067 0.005-0.135 0.010-0.203 0.016l-0.277-2.232c0.182 0.402 0.404 0.786 0.663 1.143z"></path>
<path fill="#c9334f" style="fill: var(--color2, #c9334f)" d="M3.788 4.705c0.222-0.004 0.48-0.015 0.757-0.030 0.138-0.009 0.281-0.015 0.426-0.027 0.063-0.005 0.128-0.010 0.192-0.015l0.023 0.495 0.416-0.061-0.058-0.466c0.102-0.010 0.204-0.019 0.305-0.029 0.145-0.012 0.287-0.031 0.424-0.046 0.275-0.031 0.531-0.065 0.751-0.099 0.439-0.064 0.73-0.127 0.73-0.127s-0.297-0.012-0.741-0.001c-0.222 0.004-0.48 0.014-0.757 0.030-0.138 0.009-0.281 0.014-0.426 0.027-0.104 0.008-0.209 0.016-0.314 0.024l-0.258-2.080c0 0 0-0.587-0.112-0.67-0.072-0.054-0.109 0.007-0.127 0.058-0.003-0.001-0.005-0.002-0.008-0.002-0.015-0.001-0.029 0.003-0.041 0.013s-0.019 0.023-0.021 0.038c-0.002 0.016-0.169 1.611-0.602 2.173-0.272 0.339-0.656 0.569-1.083 0.649-0.015 0.002-0.028 0.010-0.037 0.022s-0.013 0.027-0.011 0.042c0.001 0.009 0.005 0.018 0.010 0.025s0.013 0.013 0.021 0.017c-0.128 0.024-0.2 0.039-0.2 0.039s0.297 0.012 0.741 0.001zM4.437 3.978c0.344-0.446 0.522-1.462 0.591-1.954l0.034 0.445 0.091 1.945c-0.067 0.006-0.134 0.013-0.2 0.019-0.145 0.013-0.287 0.031-0.424 0.046-0.275 0.032-0.531 0.066-0.751 0.099-0.109 0.016-0.209 0.032-0.298 0.047 0.379-0.11 0.714-0.336 0.958-0.646z"></path>
<path fill="#c9334f" style="fill: var(--color2, #c9334f)" d="M23.866 19.109c0 0-1.524 1.762-2.603 3.026-0.187-0.125-0.959-0.678-3.285-2.696-0.229-0.199-0.459-0.411-0.69-0.634 0.702-0.107 2.193-0.293 3.153-0.115 1.292 0.24 2.673 1.139 2.673 1.139s-2.854-2.278-4.926-4.437c-2.073-2.159-5.166-5.846-5.166-5.846 0.262 0.474 0.533 1.366 0.78 2.357l-1.807 0.222 2.2 3.171c-1.17-1.491-1.983-2.692-1.983-2.692 0.001 0.010 0.003 0.020 0.004 0.031l-0.431-0.517 1.778-0.272-0.056-0.168-1.85 0.286-1.073-1.286c1.779-0.41 2.671-0.062 2.671-0.062l-0.196-0.978-0.319-0.358c-0.066-0.090-0.152-0.209-0.259-0.347-0.121-0.156-0.26-0.34-0.414-0.534-0.153-0.194-0.32-0.398-0.488-0.601-0.169-0.202-0.339-0.404-0.504-0.589-0.029-0.033-0.058-0.065-0.087-0.096 1.499-0.076 2.996-0.168 2.996-0.168l0.090 0.33 1.201-0.749c0 0-1.262 0.18-2.884 0.3-0.366 0.027-0.934 0.059-1.594 0.091-0.070-0.067-0.135-0.132-0.196-0.193-0.278-0.281-0.464-0.468-0.464-0.468s0.039 0.053 0.111 0.143c0.073 0.089 0.175 0.22 0.306 0.368 0.043 0.049 0.090 0.101 0.139 0.155-2.262 0.111-5.512 0.233-5.512 0.233 1.119 0.14 1.326 0.409 1.349 0.445l-0.488 5.231-0.226 0.035 0.44-4.011-2.285 0.41 1.854-0.402-3.229 0.518c0.624-0.436 1.298-0.793 2.009-1.065 0.567-0.21 1.16-0.341 1.763-0.391 0 0-0.392-0.475-0.784-0.615-0.217-0.080-0.442-0.137-0.672-0.168l3.303-0.279c0 0-0.7-0.363-0.7-0.978s0.14-0.81 0.14-0.81l-5.15 0.95c0 0 0.336 1.536 0.252 2.486-0.055 0.623-0.122 0.813-0.162 0.87l-0.832 0.133c-0.014 0.003-0.028 0.009-0.040 0.017s-0.023 0.019-0.031 0.031c-0.008 0.012-0.014 0.026-0.016 0.041s-0.002 0.029 0.001 0.044c0.003 0.014 0.009 0.028 0.018 0.040s0.019 0.023 0.032 0.030c0.012 0.008 0.026 0.013 0.041 0.016s0.030 0.002 0.044-0.001l0.551-0.12-0.157 3.247-1.698 0.291c-0.014 0.003-0.028 0.009-0.040 0.018s-0.022 0.019-0.030 0.032c-0.016 0.025-0.021 0.056-0.015 0.085s0.024 0.054 0.049 0.070c0.025 0.016 0.056 0.021 0.085 0.015l1.642-0.364-0.085 1.77c0.531-0.374 1.083-0.719 1.651-1.034 0.505-0.243 1.025-0.457 1.555-0.64l5.686-0.869c-1.299 0.209-4 0.671-4.778 1.006 0 0-0.022 0.381-0.055 0.959l-5.486 1.055c-0.014 0.003-0.028 0.009-0.040 0.018s-0.022 0.019-0.030 0.032c-0.008 0.012-0.013 0.026-0.016 0.041s-0.002 0.030 0.001 0.044 0.009 0.028 0.018 0.040c0.009 0.012 0.019 0.022 0.032 0.030s0.026 0.013 0.041 0.016 0.030 0.002 0.044-0.001l5.433-1.236c-0 0.008-0.001 0.016-0.001 0.024l-4 0.991c0.1 1.59 0.109 3.185 0.028 4.776-0.14 2.43-0.504 3.324-0.504 3.324s0.392-0.866 1.651-1.76c1.259-0.894 2.323-1.089 2.323-1.089l0.401-4.488c-0.091 1.606-0.191 3.37-0.206 3.678-0.028 0.587-0.084 1.425-0.084 1.425s0.364-1.117 2.827-2.318c2.463-1.201 3.61-0.95 3.61-0.95l-0.503-5.723 0.198 0.207c0.056 0.555 0.876 8.602 1.108 9.412 0.24 0.839 0.751 1.199 1.442 1.289s4.716 0.749 4.716 0.749l-1.322-2.039c0 0-2.944-0.3-3.334-0.57s-0.991-1.199-1.532-3.418c-0.509-2.088-1.017-5.077-1.076-5.422l0.301 0.313c0.366 2.991 1.438 6.793 1.856 7.658 0.421 0.869 1.652 0.959 1.652 0.959l4.776 0.51 0.756 0.363c-0.395 0.463-0.73 0.859-0.907 1.075-0.55 0.673-1.868 2.362-2.296 2.911-0.677-0.021-1.811 0.128-3.171 0.566-0.92 0.296-1.972 0.753-3.116 1.238 0.009-0.052 0.048-0.275 0.095-0.591 0.055-0.363 0.116-0.848 0.161-1.336 0.036-0.392 0.061-0.784 0.075-1.114 0.283-0.060 0.579-0.11 0.892-0.146 2.613-0.3 4.926 1.169 4.926 1.079s-2.133-2.368-2.133-2.368c0 0-1.802-0.060-2.223-0.42s-0.781-0.779-0.871-1.529-0.15-1.619-0.15-1.619c0 0-2.523 0.45-4.085 0.899s-2.613 0.719-2.613 0.719 0.009 0.058 0.024 0.161l-0.134 2.101-1.333 0.335 0.442-1.709c0.528-0.183 0.894-0.271 0.894-0.271l-0.179-0.581-0.444 0.074c0.207-0.058 0.489-0.137 0.824-0.227 0.725-0.196 1.693-0.448 2.667-0.677s1.953-0.438 2.686-0.591c0.367-0.076 0.673-0.137 0.888-0.178 0.213-0.040 0.335-0.062 0.335-0.062l-0.064-0.331-0.339 0.078c-0.214 0.050-0.519 0.124-0.884 0.216-0.73 0.184-1.698 0.435-2.665 0.705s-1.924 0.562-2.64 0.789c-0.391 0.123-0.709 0.227-0.918 0.296l-0.523 0.087 1.12-0.716v-0.313c-0.947 0.227-1.814 0.706-2.51 1.387-1.12 1.118-1.569 1.655-1.569 1.655s0.672-2.639 0.583-4.070c-0.090-1.431-0.090-1.834-0.090-1.834l-1.21 0.179c0 0 0.045 4.115 0.045 5.010-0.018 0.661-0.093 1.32-0.224 1.968 0.715-0.66 1.496-1.244 2.33-1.744 0.563-0.322 1.155-0.592 1.768-0.806l-0.415 1.691-4.311 1.084c1.027-0.2 2.823-0.47 4.209-0.669l-1.456 5.93 1.538-5.941c0.575-0.083 1.073-0.152 1.407-0.198l-0.372 5.824c-0.94 0.26-1.517 0.387-1.795 0.404-0.481 0.030-0.811 0.030-0.811 0.030s-0.090 0.36 0.060 0.48c0.15 0.12 0.571 0.18 0.661 0.39 0.063 0.174 0.103 0.355 0.12 0.54 0 0 3.244 0.030 5.617-0.33s3.094-0.39 4.806-0.21c1.712 0.18 2.914 0.21 3.034 0.030 0 0 0.578-1.547 1.193-2.777-0.018-0.11-0.041-0.22-0.068-0.321-0.010-0.038-0.022-0.076-0.034-0.109-0.009-0.028-0.022-0.055-0.036-0.081-0.003-0.007-0.003-0.004-0.004-0.006s0.002-0.001-0.009-0.011l-0.083-0.085c-0.27-0.012-0.559-0.004-0.839 0.009-0.31 0.019-0.62 0.041-0.929 0.078-0.155 0.015-0.309 0.036-0.464 0.057-0.155 0.019-0.309 0.044-0.463 0.069-0.154 0.023-0.308 0.049-0.462 0.078s-0.308 0.054-0.461 0.087l-0.459 0.096-0.457 0.107c-0.305 0.069-0.607 0.155-0.91 0.233-0.301 0.088-0.602 0.172-0.904 0.263l-0.905 0.269c-1.209 0.355-2.421 0.695-3.638 1.018-0.608 0.162-1.218 0.319-1.828 0.473l-0.916 0.229c-0.152 0.039-0.306 0.075-0.461 0.103-0.155 0.031-0.312 0.045-0.47 0.042 0.157-0.001 0.314-0.019 0.467-0.055 0.154-0.032 0.306-0.072 0.457-0.115l0.909-0.255c0.606-0.171 1.21-0.345 1.813-0.523 1.207-0.357 2.408-0.729 3.604-1.117l0.897-0.294c0.297-0.099 0.601-0.193 0.901-0.29 0.304-0.087 0.606-0.182 0.912-0.261l0.459-0.121 0.462-0.11c0.154-0.039 0.309-0.068 0.464-0.102s0.31-0.064 0.466-0.093c0.156-0.030 0.312-0.059 0.469-0.083 0.157-0.026 0.313-0.051 0.471-0.072 0.314-0.046 0.632-0.078 0.949-0.106 0.323-0.027 0.646-0.038 0.97-0.032l0.074 0.002 0.204 0.198c0.026 0.026 0.050 0.055 0.071 0.086 0.032 0.050 0.058 0.103 0.079 0.158l0.002 0.005c0.519-0.986 0.668-1.259 0.668-1.259l-0.413-0.477c0.443-0.598 0.955-1.142 1.524-1.622v-0.929c0 0 3.184-3.957 3.454-4.317s0.451-0.66 0.12-0.42zM10.999 7.275c0.157 0.19 0.325 0.393 0.493 0.596 0.054 0.064 0.107 0.128 0.161 0.191l-0.838-0.939c0.018-0.001 0.037-0.002 0.055-0.003 0.042 0.050 0.085 0.102 0.13 0.155zM6.564 7.216h0.902c-0.526 0.013-0.901 0.021-0.901 0.021l-0.017 0.181 0.016-0.202zM6.201 12.808c0.507-0.375 2.108-1.489 3.863-1.997 0.106-0.030 0.207-0.057 0.307-0.082l1.2 1.248-5.37 0.831zM17.739 28.402l0.228 0.379-1.14 2.54 0.912-2.919zM7.254 26.089l0.494 0.758c0.418-0.514 0.934-0.94 1.52-1.251 0.667-0.357 1.384-0.613 2.127-0.758 0 0-2.013 0.872-2.697 1.479s-0.836 1.1-0.836 1.1l-0.076 0.379c0 0-0.95-0.948-1.254-3.45 0.151 0.614 0.395 1.202 0.722 1.744zM8.006 29.361c-1.103 0.342-1.985 0.603-2.674 0.793l0.446-5.833c0.228-0.031 0.362-0.050 0.362-0.050l-0.090-0.581-0.229 0.058 0.122-1.6c0.173 1.064 0.549 3.19 0.955 4.336-0.055 0.627-0.104 1.217-0.138 1.704-0.055 0.763-0.082 1.272-0.082 1.272s0.035-0.509 0.1-1.27c0.039-0.464 0.093-1.023 0.153-1.618 0.028 0.075 0.056 0.146 0.084 0.211 0.601 1.379 1.081 1.529 1.081 1.529s-0.3-0.6 0.21-1.319c0.437-0.615 1.644-1.601 3.618-2.062 0.004 0.319 0.001 0.692-0.012 1.066-0.016 0.487-0.050 0.974-0.084 1.339-0.029 0.318-0.055 0.543-0.061 0.596-1.229 0.539-2.485 1.016-3.762 1.43zM18.954 26.885l-0.38 0.834-0.342-0.417c0 0 0.304-0.607 0.304-0.72l0.418 0.303z"></path>
<path fill="#c9334f" style="fill: var(--color2, #c9334f)" d="M1.626 25.097c0 0 0.246 2.208 0.082 3.353l-0.164 1.145 5.49-1.472c0 0-0.655-1.472-0.819-2.126-0.109-0.458-0.191-0.923-0.246-1.39l-4.343 0.491z"></path>
</symbol>
<symbol id="icon-asset" viewBox="0 0 56 32">
<path fill="#cf2a49" style="fill: var(--color3, #cf2a49)" d="M25.056 10.127c0.084 0.201 0.209 0.381 0.369 0.529s0.349 0.26 0.555 0.328c0.096 0.036 0.194 0.065 0.294 0.086 0.984 0.209 2.833 0.289 3.318-0.856 0.351-0.827-0.331-1.030-0.736-1.569-0.364-0.492-0.558-1.090-0.551-1.702-0.002-1.19 0.673-2.326 0.926-3.429 0.378-1.644-0.367-2.83-1.305-3.3s-1.71-0.163-2.462 0.853c-0.752 1.016 0.085 2.909 0.64 4.881 0.233 0.738 0.165 1.539-0.192 2.226-0.353 0.655-1.173 1.078-0.857 1.951zM28.257 3.788c-0.203-0.069-0.121-0.405 0.078-0.416 0.33-0.018 0.213 0.515-0.078 0.416zM27.622 0.522c0.278 0.074 0.521 0.242 0.688 0.476 0.183 0.302 0.289 0.645 0.307 0.998 0.033 0.179 0.022 0.363-0.033 0.537-0.044 0.112-0.185 0.313-0.33 0.254-0.027-0.012-0.050-0.031-0.066-0.055s-0.025-0.053-0.024-0.083c-0.007-0.254-0.074-0.503-0.195-0.727s-0.294-0.415-0.503-0.56c-0.392-0.272-0.476-0.951 0.156-0.839zM26.282 10.131c0.010-0.019 0.041-0.025 0.087-0.022 0.292 0.019 0.566 0.176 0.858 0.218 0.568 0.060 1.141-0.020 1.67-0.233-0.455 0.263-0.973 0.397-1.499 0.388-0.095 0.003-1.3-0.015-1.117-0.35zM26.17 9.384c-0.038 0.059-0.064 0.125-0.075 0.194s-0.006 0.14 0.013 0.208c0.016 0.026 0.030 0.053 0.043 0.081 0.006 0.025 0.005 0.051-0.002 0.075s-0.021 0.047-0.039 0.064c-0.018 0.018-0.041 0.030-0.066 0.037s-0.051 0.006-0.075-0.001c-0.024-0.010-0.046-0.025-0.065-0.043-0.079-0.069-0.141-0.156-0.182-0.252s-0.058-0.202-0.052-0.306c0.003-0.173 0.073-0.338 0.196-0.46 0.313-0.264 0.404 0.18 0.304 0.403z"></path>
<path fill="#cf2a49" style="fill: var(--color3, #cf2a49)" d="M44.83 17.191c0.547 0.843 1.798 2.206 2.952 1.74 0.833-0.337 0.495-0.962 0.59-1.629 0.091-0.605 0.377-1.165 0.814-1.593 0.84-0.843 2.122-1.17 3.082-1.77 1.431-0.895 1.743-2.26 1.412-3.255s-1.094-1.324-2.345-1.137c-1.251 0.187-1.998 2.117-3.002 3.904-0.357 0.687-0.973 1.204-1.711 1.439-0.714 0.214-1.592-0.067-1.987 0.774-0.083 0.201-0.122 0.418-0.114 0.635s0.063 0.43 0.16 0.625c0.042 0.093 0.091 0.183 0.147 0.268zM52.127 12.571c0.175-0.185 0.304-0.408 0.376-0.652s0.086-0.501 0.041-0.751c-0.085-0.469 0.336-1.009 0.704-0.483 0.144 0.248 0.197 0.539 0.15 0.822-0.085 0.343-0.252 0.66-0.489 0.923-0.104 0.15-0.242 0.272-0.403 0.357-0.11 0.048-0.352 0.091-0.413-0.054-0.011-0.027-0.014-0.057-0.008-0.086s0.020-0.055 0.041-0.076zM51.735 13.203c0.246 0.221-0.214 0.515-0.35 0.24-0.095-0.192 0.202-0.372 0.35-0.24zM47.377 18.355c-0.508-0.135-0.969-0.407-1.334-0.785-0.069-0.065-0.909-0.929-0.542-1.037 0.021-0.006 0.047 0.012 0.077 0.046 0.193 0.22 0.276 0.525 0.453 0.761 0.359 0.443 0.821 0.792 1.346 1.015zM45.556 15.613c0.124-0.12 0.291-0.187 0.464-0.187 0.408 0.034 0.158 0.412-0.070 0.499-0.131 0.050-0.283 0.108-0.328 0.241-0.007 0.030-0.016 0.059-0.027 0.088-0.013 0.022-0.032 0.040-0.055 0.052s-0.048 0.018-0.073 0.018c-0.026-0.001-0.051-0.008-0.073-0.021s-0.040-0.032-0.053-0.054c-0.010-0.024-0.015-0.050-0.016-0.077-0.007-0.105 0.010-0.21 0.050-0.307s0.102-0.184 0.18-0.253z"></path>
<path fill="#cf2a49" style="fill: var(--color3, #cf2a49)" d="M5.079 16.352c0.687 0.357 1.205 0.972 1.44 1.71 0.214 0.713-0.067 1.591 0.775 1.985 0.201 0.083 0.418 0.122 0.635 0.114s0.431-0.063 0.625-0.16c0.093-0.042 0.183-0.091 0.269-0.147 0.844-0.547 2.207-1.797 1.741-2.95-0.337-0.832-0.963-0.494-1.631-0.59-0.606-0.090-1.165-0.376-1.594-0.814-0.843-0.84-1.17-2.12-1.772-3.080-0.896-1.43-2.262-1.742-3.257-1.411s-1.325 1.093-1.138 2.343 2.119 1.997 3.907 2.999zM8.209 19.106c0.22-0.193 0.525-0.276 0.761-0.453 0.444-0.359 0.792-0.821 1.016-1.345-0.136 0.508-0.407 0.969-0.786 1.333-0.065 0.069-0.929 0.908-1.037 0.542-0.006-0.021 0.012-0.047 0.046-0.077zM7.555 18.734c0.050 0.131 0.108 0.283 0.241 0.328 0.030 0.007 0.059 0.016 0.088 0.027 0.022 0.013 0.040 0.032 0.052 0.055s0.018 0.048 0.018 0.073c-0.001 0.026-0.008 0.051-0.021 0.073s-0.032 0.040-0.054 0.053c-0.024 0.010-0.050 0.015-0.077 0.016-0.105 0.007-0.21-0.010-0.307-0.050s-0.184-0.101-0.254-0.18c-0.12-0.124-0.188-0.291-0.187-0.464 0.034-0.408 0.413-0.158 0.5 0.070zM4.831 12.953c0.221-0.246 0.515 0.214 0.24 0.349-0.192 0.095-0.372-0.201-0.24-0.349zM2.311 11.442c0.249-0.144 0.54-0.197 0.823-0.15 0.343 0.085 0.66 0.252 0.923 0.488 0.15 0.104 0.272 0.242 0.357 0.403 0.048 0.11 0.091 0.352-0.054 0.412-0.027 0.011-0.057 0.014-0.086 0.008s-0.055-0.020-0.076-0.041c-0.185-0.175-0.408-0.303-0.652-0.376s-0.502-0.086-0.752-0.041c-0.47 0.085-1.010-0.336-0.483-0.703z"></path>
<path fill="#cf2a49" style="fill: var(--color3, #cf2a49)" d="M50.399 29.224l0.483-0.014c-0.986-3.061-2.582-5.891-4.694-8.318 0.008-0.008 0.017-0.014 0.025-0.022l0.781-0.827c0.076-0.081 0.132-0.178 0.165-0.283s0.042-0.217 0.027-0.327c-0.681-0.083-1.312-0.403-1.78-0.904-0.35-0.334-0.66-0.706-0.925-1.111-0.067-0.103-0.126-0.211-0.177-0.323-0.065-0.144-0.115-0.295-0.149-0.45-0.098 0.003-0.194 0.024-0.283 0.064s-0.17 0.097-0.237 0.168l-0.781 0.827c-0.004 0.004-0.006 0.009-0.010 0.013-3.735-2.921-8.26-4.659-12.991-4.988 0-0.012 0.003-0.023 0.002-0.035l-0.033-1.137c-0.004-0.111-0.032-0.219-0.083-0.317s-0.124-0.184-0.212-0.25c-0.541 0.423-1.213 0.642-1.899 0.619-0.484 0.012-0.967-0.033-1.44-0.133-0.12-0.026-0.239-0.060-0.354-0.104-0.148-0.056-0.29-0.127-0.424-0.213-0.067 0.071-0.12 0.154-0.155 0.246s-0.051 0.189-0.049 0.286l0.033 1.137c0 0.006 0.002 0.012 0.002 0.018-4.708 0.573-9.136 2.542-12.714 5.653-0.009-0.009-0.015-0.020-0.025-0.029l-0.828-0.781c-0.081-0.076-0.178-0.132-0.283-0.165s-0.217-0.042-0.327-0.027c-0.083 0.681-0.403 1.311-0.905 1.779-0.334 0.35-0.707 0.66-1.112 0.924-0.103 0.067-0.211 0.126-0.324 0.177-0.145 0.065-0.295 0.115-0.45 0.149 0.003 0.098 0.024 0.194 0.064 0.283s0.097 0.17 0.168 0.237l0.828 0.781c0.006 0.005 0.012 0.009 0.018 0.014-1.734 2.214-3.062 4.718-3.922 7.395-1.869 0.787-3.683 1.699-5.431 2.729 7.71-2.58 17.348-4.116 27.812-4.116 10.51 0 20.186 1.55 27.913 4.151-1.706-1.052-3.486-1.98-5.326-2.776zM25.623 14.090c0.059-0.086 0.141-0.153 0.237-0.193s0.201-0.053 0.303-0.036c0.103 0.017 0.198 0.063 0.276 0.132s0.134 0.159 0.162 0.259c0.007 0.082-0.005 0.164-0.034 0.241s-0.076 0.146-0.136 0.201c-0.060 0.056-0.132 0.097-0.211 0.121s-0.162 0.029-0.243 0.016c-0.073-0.023-0.141-0.061-0.199-0.112s-0.105-0.112-0.138-0.182c-0.033-0.069-0.052-0.145-0.054-0.222s0.010-0.154 0.039-0.225zM19.623 15.409c0.561-0.264 5.106-1.859 5.124-0.843-0.002 0.082-0.022 0.162-0.057 0.235-0.541 1.213-3.204 1.035-4.281 1.462-2.041 0.809-4.314 1.199-5.844 2.915 1.416-1.582 3.137-2.864 5.058-3.769zM13.19 26.667c0.493-0.747 1.041-1.455 1.64-2.121l1.88 1.353c-1.196 0.222-2.37 0.478-3.52 0.768zM23.656 25.018c-2.083 0.146-4.116 0.39-6.1 0.732l-1.693-2.258c2.944-2.787 6.752-4.487 10.793-4.821l0.653 3.315c-0.834 0.108-1.619 0.451-2.266 0.987s-1.128 1.246-1.388 2.044zM30.689 24.354c-0.098-0.084-0.182-0.184-0.246-0.297-0.461-0.679-1.107-1.212-1.861-1.537-0.052-0.020-0.105-0.036-0.159-0.048 0.672 0.129 1.31 0.396 1.874 0.782 0.186 0.134 1.089 0.895 0.753 1.131-0.056 0.032-0.121 0.046-0.186 0.040s-0.126-0.030-0.176-0.072zM31.463 24.87c-0.019 0.032-0.048 0.057-0.082 0.070-0.386 0.175-0.372-0.475 0.019-0.234 0.028 0.015 0.050 0.040 0.062 0.070s0.012 0.063 0.002 0.094zM32.096 24.989c-0.273-0.819-0.78-1.541-1.457-2.077s-1.497-0.863-2.357-0.941l0.369-3.356c4.253 0.11 8.326 1.734 11.486 4.58l-1.677 2.532c-2.106-0.359-4.23-0.605-6.363-0.738zM38.98 25.82l2.103-1.708c0.777 0.81 1.476 1.691 2.089 2.631-1.362-0.356-2.759-0.664-4.192-0.924z"></path>
</symbol>
<symbol id="icon-twitter-white" viewBox="0 0 31 32">
<path fill="#fff" style="fill: var(--color1, #fff)" d="M18.625 13.543l11.651-13.543h-2.761l-10.116 11.759-8.080-11.759h-9.319l12.218 17.782-12.218 14.202h2.761l10.683-12.418 8.533 12.418h9.319l-12.671-18.441zM14.844 17.938l-11.088-15.86h4.241l19.52 27.921h-4.241l-8.432-12.061z"></path>
</symbol>
<symbol id="icon-Logomark-Blue" viewBox="0 0 32 32">
<path fill="#fff" style="fill: var(--color1, #fff)" d="M22.406 18.87c-0.555 0.744-1.723 1.979-2.373 1.979h-3.019v-1.981h2.405c0.344 0 0.672-0.139 0.909-0.384 1.235-1.28 1.949-2.803 1.949-4.437 0-2.787-2.083-5.251-5.264-6.736v-1.331c0-0.573-0.464-1.037-1.037-1.037s-1.037 0.464-1.037 1.037v0.552c-0.891-0.261-1.835-0.459-2.821-0.573 1.632 1.773 2.629 4.144 2.629 6.744 0 2.331-0.797 4.472-2.136 6.168h2.328v1.984h-3.408c-0.461 0-0.835-0.373-0.835-0.835v-0.867c0-0.152-0.123-0.277-0.277-0.277h-4.493c-0.088 0-0.163 0.072-0.163 0.16-0.003 3.549 2.805 6.213 6.163 6.213h9.48c2.272 0 3.288-2.912 4.619-4.765 0.517-0.717 1.757-1.293 2.133-1.453 0.069-0.029 0.109-0.093 0.109-0.168v-1.152c0-0.117-0.115-0.205-0.229-0.173 0 0-5.48 1.259-5.544 1.277-0.064 0.019-0.088 0.056-0.088 0.056v-0.002z"></path>
<path fill="#fff" style="fill: var(--color1, #fff)" d="M12.992 12.696c0-1.787-0.613-3.432-1.637-4.733l-5.157 8.923h5.547c0.789-1.203 1.248-2.643 1.248-4.189l-0.002-0.002z"></path>
<path fill="#0086ff" style="fill: var(--color4, #0086ff)" d="M16.139 0c-8.947-0.074-16.213 7.192-16.139 16.139 0.075 8.688 7.173 15.787 15.859 15.859 8.947 0.077 16.216-7.192 16.139-16.139-0.072-8.685-7.171-15.784-15.859-15.859zM11.355 7.963c1.024 1.301 1.637 2.947 1.637 4.733 0 1.547-0.459 2.987-1.248 4.189h-5.547l5.158-8.922zM28.267 17.71v1.152c0 0.075-0.040 0.139-0.109 0.168-0.376 0.16-1.616 0.736-2.133 1.453-1.331 1.853-2.347 4.765-4.619 4.765h-9.48c-3.357 0-6.165-2.664-6.163-6.213 0-0.088 0.075-0.16 0.163-0.16h4.493c0.155 0 0.277 0.125 0.277 0.277v0.867c0 0.461 0.373 0.835 0.835 0.835h3.408v-1.984h-2.328c1.339-1.696 2.136-3.837 2.136-6.168 0-2.6-0.997-4.971-2.629-6.744 0.987 0.115 1.931 0.312 2.821 0.573v-0.552c0-0.573 0.464-1.037 1.037-1.037s1.037 0.464 1.037 1.037v1.331c3.181 1.485 5.264 3.949 5.264 6.736 0 1.635-0.715 3.157-1.949 4.437-0.237 0.245-0.565 0.384-0.909 0.384h-2.405v1.981h3.019c0.651 0 1.819-1.235 2.373-1.979 0 0 0.024-0.037 0.088-0.056s5.544-1.277 5.544-1.277c0.115-0.032 0.229 0.056 0.229 0.173v0.002z"></path>
</symbol>
<symbol id="icon-x" viewBox="0 0 32 32">
<path fill="#fff" style="fill: var(--color1, #fff)" d="M23.778 9.636l-14.142 14.142-1.414-1.414 14.142-14.142 1.414 1.414z"></path>
<path fill="#fff" style="fill: var(--color1, #fff)" d="M9.636 8.222l14.142 14.142-1.414 1.414-14.142-14.142 1.414-1.414z"></path>
</symbol>
<symbol id="icon-metaMask" viewBox="0 0 32 32">
<path fill="#f5841f" style="fill: var(--color5, #f5841f)" d="M26.156 15.984l1.078-1.266-0.469-0.344 0.75-0.687-0.578-0.437 0.75-0.563-0.484-0.375 0.781-3.813-1.187-3.531zM26.797 4.969l-7.625 2.828h-6.359l-7.625-2.828-1.188 3.531 0.797 3.813-0.5 0.375 0.766 0.563-0.578 0.437 0.75 0.687-0.469 0.344 1.078 1.266-1.641 5.063 1.516 5.172 5.328-1.469 1.031 0.844 2.109 1.437h3.609l2.109-1.437 1.031-0.844 5.344 1.469 1.531-5.172-1.656-5.063z"></path>
<path fill="#e27625" style="fill: var(--color6, #e27625)" d="M26.797 4.969l-9.359 6.891 1.734-4.063 7.625-2.828z"></path>
<path fill="#e27625" style="fill: var(--color6, #e27625)" d="M5.188 4.969l9.281 6.953-1.656-4.125-7.625-2.828z"></path>
<path fill="#e27625" style="fill: var(--color6, #e27625)" d="M23.437 20.953l-2.5 3.781 5.344 1.469 1.531-5.172-4.375-0.078z"></path>
<path fill="#e27625" style="fill: var(--color6, #e27625)" d="M4.203 21.031l1.516 5.172 5.328-1.469-2.484-3.781-4.359 0.078z"></path>
<path fill="#e27625" style="fill: var(--color6, #e27625)" d="M10.766 14.547l-1.484 2.234 5.281 0.234-0.172-5.656-3.625 3.188z"></path>
<path fill="#e27625" style="fill: var(--color6, #e27625)" d="M21.234 14.547l-3.687-3.25-0.109 5.719 5.281-0.234-1.484-2.234z"></path>
<path fill="#e27625" style="fill: var(--color6, #e27625)" d="M11.047 24.734l3.203-1.531-2.766-2.125-0.438 3.656z"></path>
<path fill="#e27625" style="fill: var(--color6, #e27625)" d="M17.75 23.203l3.187 1.531-0.437-3.656-2.75 2.125z"></path>
<path fill="#d7c1b3" style="fill: var(--color7, #d7c1b3)" d="M20.937 24.734l-3.187-1.531 0.266 2.063-0.031 0.875 2.953-1.406z"></path>
<path fill="#d7c1b3" style="fill: var(--color7, #d7c1b3)" d="M11.047 24.734l2.969 1.406-0.016-0.875 0.25-2.063-3.203 1.531z"></path>
<path fill="#2f343b" style="fill: var(--color8, #2f343b)" d="M14.063 19.703l-2.641-0.766 1.875-0.859 0.766 1.625z"></path>
<path fill="#2f343b" style="fill: var(--color8, #2f343b)" d="M17.922 19.703l0.781-1.625 1.875 0.859-2.656 0.766z"></path>
<path fill="#cc6228" style="fill: var(--color9, #cc6228)" d="M11.047 24.734l0.469-3.781-2.953 0.078 2.484 3.703z"></path>
<path fill="#cc6228" style="fill: var(--color9, #cc6228)" d="M20.484 20.953l0.453 3.781 2.5-3.703-2.953-0.078z"></path>
<path fill="#cc6228" style="fill: var(--color9, #cc6228)" d="M22.719 16.781l-5.281 0.234 0.484 2.687 0.781-1.625 1.875 0.859 2.141-2.156z"></path>
<path fill="#cc6228" style="fill: var(--color9, #cc6228)" d="M11.422 18.937l1.875-0.859 0.766 1.625 0.5-2.687-5.281-0.234 2.141 2.156z"></path>
<path fill="#e27625" style="fill: var(--color6, #e27625)" d="M9.281 16.781l2.203 4.297-0.063-2.141-2.141-2.156z"></path>
<path fill="#e27625" style="fill: var(--color6, #e27625)" d="M20.578 18.937l-0.078 2.141 2.219-4.297-2.141 2.156z"></path>
<path fill="#e27625" style="fill: var(--color6, #e27625)" d="M14.563 17.016l-0.5 2.687 0.625 3.188 0.141-4.188-0.266-1.687z"></path>
<path fill="#e27625" style="fill: var(--color6, #e27625)" d="M17.437 17.016l-0.266 1.672 0.125 4.203 0.625-3.188-0.484-2.687z"></path>
<path fill="#f5841f" style="fill: var(--color5, #f5841f)" d="M17.922 19.703l-0.625 3.188 0.453 0.312 2.75-2.125 0.078-2.141-2.656 0.766z"></path>
<path fill="#f5841f" style="fill: var(--color5, #f5841f)" d="M11.422 18.937l0.063 2.141 2.766 2.125 0.437-0.312-0.625-3.188-2.641-0.766z"></path>
<path fill="#c0ad9e" style="fill: var(--color10, #c0ad9e)" d="M17.984 26.141l0.031-0.875-0.25-0.203h-3.547l-0.219 0.203 0.016 0.875-2.969-1.406 1.031 0.844 2.109 1.453h3.609l2.109-1.453 1.031-0.844-2.953 1.406z"></path>
<path fill="#2f343b" style="fill: var(--color8, #2f343b)" d="M17.75 23.203l-0.453-0.312h-2.609l-0.437 0.312-0.25 2.063 0.219-0.203h3.547l0.25 0.203-0.266-2.063z"></path>
<path fill="#763e1a" style="fill: var(--color11, #763e1a)" d="M27.203 12.313l0.781-3.813-1.187-3.531-9.047 6.656 3.484 2.922 4.922 1.437 1.078-1.266-0.469-0.344 0.75-0.672-0.578-0.453 0.75-0.563-0.484-0.375z"></path>
<path fill="#763e1a" style="fill: var(--color11, #763e1a)" d="M4 8.5l0.797 3.813-0.5 0.375 0.75 0.578-0.578 0.437 0.75 0.672-0.469 0.344 1.094 1.266 4.922-1.437 3.484-2.922-9.063-6.656-1.188 3.531z"></path>
<path fill="#f5841f" style="fill: var(--color5, #f5841f)" d="M26.156 15.984l-4.922-1.437 1.484 2.234-2.219 4.297 2.937-0.047h4.375l-1.656-5.047z"></path>
<path fill="#f5841f" style="fill: var(--color5, #f5841f)" d="M10.766 14.547l-4.922 1.437-1.641 5.047h4.359l2.922 0.047-2.203-4.297 1.484-2.234z"></path>
<path fill="#f5841f" style="fill: var(--color5, #f5841f)" d="M17.437 17.016l0.313-5.391 1.422-3.828h-6.359l1.438 3.828 0.313 5.391 0.125 1.687v4.188h2.609l0.016-4.188 0.125-1.687z"></path>
</symbol>
<symbol id="icon-discord-blue" viewBox="0 0 32 32">
<path fill="#5a65f2" style="fill: var(--color12, #5a65f2)" d="M25.256 7.847c-1.726-0.759-3.572-1.31-5.501-1.624-0.237 0.403-0.514 0.944-0.705 1.375-2.051-0.29-4.084-0.29-6.097 0-0.191-0.431-0.474-0.972-0.713-1.375-1.932 0.314-3.78 0.867-5.506 1.628-3.482 4.943-4.426 9.763-3.954 14.515 2.309 1.62 4.547 2.604 6.747 3.248 0.543-0.702 1.028-1.449 1.445-2.236-0.795-0.284-1.556-0.634-2.276-1.041 0.191-0.133 0.378-0.272 0.558-0.415 4.388 1.928 9.155 1.928 13.491 0 0.182 0.143 0.369 0.282 0.558 0.415-0.722 0.409-1.485 0.759-2.28 1.043 0.417 0.785 0.9 1.534 1.445 2.236 2.202-0.644 4.442-1.628 6.752-3.25 0.554-5.509-0.946-10.285-3.964-14.519zM11.57 19.444c-1.317 0-2.397-1.155-2.397-2.562s1.057-2.564 2.397-2.564 2.42 1.155 2.397 2.564c0.002 1.407-1.057 2.562-2.397 2.562zM20.43 19.444c-1.317 0-2.397-1.155-2.397-2.562s1.057-2.564 2.397-2.564c1.34 0 2.42 1.155 2.397 2.564 0 1.407-1.057 2.562-2.397 2.562z"></path>
</symbol>
</defs>
</svg>
